ISO-10303-21;
HEADER;
/* Generated by software containing ST-Developer
 * from STEP Tools, Inc. (www.steptools.com) 
 */

FILE_DESCRIPTION(
/* description */ (''),
/* implementation_level */ '2;1');

FILE_NAME(
/* name */ 'Stand Rishabh.step',
/* time_stamp */ '2026-06-11T11:31:38+05:30',
/* author */ (''),
/* organization */ (''),
/* preprocessor_version */ 'ST-DEVELOPER v20.1',
/* originating_system */ 'Autodesk Translation Framework v15.8.0.0',
/* authorisation */ '');

FILE_SCHEMA (('AUTOMOTIVE_DESIGN { 1 0 10303 214 3 1 1 }'));
ENDSEC;

DATA;
#10=MECHANICAL_DESIGN_GEOMETRIC_PRESENTATION_REPRESENTATION('',(#13,#14),
#1006);
#11=SHAPE_REPRESENTATION_RELATIONSHIP('SRR','None',#1013,#12);
#12=ADVANCED_BREP_SHAPE_REPRESENTATION('',(#15,#16),#1005);
#13=STYLED_ITEM('',(#1022),#15);
#14=STYLED_ITEM('',(#1022),#16);
#15=MANIFOLD_SOLID_BREP('Body1',#609);
#16=MANIFOLD_SOLID_BREP('Body2',#610);
#17=CYLINDRICAL_SURFACE('',#633,1.);
#18=CYLINDRICAL_SURFACE('',#636,1.);
#19=CYLINDRICAL_SURFACE('',#641,1.6404067620945);
#20=CYLINDRICAL_SURFACE('',#652,1.);
#21=CYLINDRICAL_SURFACE('',#656,1.);
#22=CYLINDRICAL_SURFACE('',#662,1.6404067620945);
#23=CIRCLE('',#627,1.);
#24=CIRCLE('',#628,1.);
#25=CIRCLE('',#629,1.6404067620945);
#26=CIRCLE('',#634,1.);
#27=CIRCLE('',#637,1.);
#28=CIRCLE('',#642,1.6404067620945);
#29=CIRCLE('',#649,1.);
#30=CIRCLE('',#650,1.);
#31=CIRCLE('',#651,1.6404067620945);
#32=CIRCLE('',#653,1.);
#33=CIRCLE('',#657,1.);
#34=CIRCLE('',#663,1.6404067620945);
#35=FACE_OUTER_BOUND('',#67,.T.);
#36=FACE_OUTER_BOUND('',#68,.T.);
#37=FACE_OUTER_BOUND('',#69,.T.);
#38=FACE_OUTER_BOUND('',#70,.T.);
#39=FACE_OUTER_BOUND('',#71,.T.);
#40=FACE_OUTER_BOUND('',#72,.T.);
#41=FACE_OUTER_BOUND('',#73,.T.);
#42=FACE_OUTER_BOUND('',#74,.T.);
#43=FACE_OUTER_BOUND('',#75,.T.);
#44=FACE_OUTER_BOUND('',#76,.T.);
#45=FACE_OUTER_BOUND('',#77,.T.);
#46=FACE_OUTER_BOUND('',#78,.T.);
#47=FACE_OUTER_BOUND('',#79,.T.);
#48=FACE_OUTER_BOUND('',#80,.T.);
#49=FACE_OUTER_BOUND('',#81,.T.);
#50=FACE_OUTER_BOUND('',#82,.T.);
#51=FACE_OUTER_BOUND('',#83,.T.);
#52=FACE_OUTER_BOUND('',#84,.T.);
#53=FACE_OUTER_BOUND('',#85,.T.);
#54=FACE_OUTER_BOUND('',#86,.T.);
#55=FACE_OUTER_BOUND('',#87,.T.);
#56=FACE_OUTER_BOUND('',#88,.T.);
#57=FACE_OUTER_BOUND('',#89,.T.);
#58=FACE_OUTER_BOUND('',#90,.T.);
#59=FACE_OUTER_BOUND('',#91,.T.);
#60=FACE_OUTER_BOUND('',#92,.T.);
#61=FACE_OUTER_BOUND('',#93,.T.);
#62=FACE_OUTER_BOUND('',#94,.T.);
#63=FACE_OUTER_BOUND('',#95,.T.);
#64=FACE_OUTER_BOUND('',#96,.T.);
#65=FACE_OUTER_BOUND('',#97,.T.);
#66=FACE_OUTER_BOUND('',#98,.T.);
#67=EDGE_LOOP('',(#383,#384,#385,#386));
#68=EDGE_LOOP('',(#387,#388,#389,#390));
#69=EDGE_LOOP('',(#391,#392,#393,#394,#395,#396,#397,#398,#399,#400,#401,
#402,#403,#404));
#70=EDGE_LOOP('',(#405,#406,#407,#408));
#71=EDGE_LOOP('',(#409,#410,#411,#412));
#72=EDGE_LOOP('',(#413,#414,#415,#416));
#73=EDGE_LOOP('',(#417,#418,#419,#420));
#74=EDGE_LOOP('',(#421,#422,#423,#424));
#75=EDGE_LOOP('',(#425,#426,#427,#428));
#76=EDGE_LOOP('',(#429,#430,#431,#432));
#77=EDGE_LOOP('',(#433,#434,#435,#436));
#78=EDGE_LOOP('',(#437,#438,#439,#440));
#79=EDGE_LOOP('',(#441,#442,#443,#444));
#80=EDGE_LOOP('',(#445,#446,#447,#448));
#81=EDGE_LOOP('',(#449,#450,#451,#452));
#82=EDGE_LOOP('',(#453,#454,#455,#456,#457,#458,#459,#460,#461,#462,#463,
#464,#465,#466));
#83=EDGE_LOOP('',(#467,#468,#469,#470));
#84=EDGE_LOOP('',(#471,#472,#473,#474));
#85=EDGE_LOOP('',(#475,#476,#477,#478,#479,#480,#481,#482,#483,#484,#485,
#486,#487,#488));
#86=EDGE_LOOP('',(#489,#490,#491,#492));
#87=EDGE_LOOP('',(#493,#494,#495,#496));
#88=EDGE_LOOP('',(#497,#498,#499,#500));
#89=EDGE_LOOP('',(#501,#502,#503,#504));
#90=EDGE_LOOP('',(#505,#506,#507,#508));
#91=EDGE_LOOP('',(#509,#510,#511,#512));
#92=EDGE_LOOP('',(#513,#514,#515,#516));
#93=EDGE_LOOP('',(#517,#518,#519,#520));
#94=EDGE_LOOP('',(#521,#522,#523,#524));
#95=EDGE_LOOP('',(#525,#526,#527,#528));
#96=EDGE_LOOP('',(#529,#530,#531,#532));
#97=EDGE_LOOP('',(#533,#534,#535,#536));
#98=EDGE_LOOP('',(#537,#538,#539,#540,#541,#542,#543,#544,#545,#546,#547,
#548,#549,#550));
#99=LINE('',#834,#171);
#100=LINE('',#836,#172);
#101=LINE('',#838,#173);
#102=LINE('',#839,#174);
#103=LINE('',#842,#175);
#104=LINE('',#844,#176);
#105=LINE('',#845,#177);
#106=LINE('',#848,#178);
#107=LINE('',#850,#179);
#108=LINE('',#852,#180);
#109=LINE('',#854,#181);
#110=LINE('',#856,#182);
#111=LINE('',#860,#183);
#112=LINE('',#864,#184);
#113=LINE('',#866,#185);
#114=LINE('',#868,#186);
#115=LINE('',#872,#187);
#116=LINE('',#874,#188);
#117=LINE('',#875,#189);
#118=LINE('',#878,#190);
#119=LINE('',#879,#191);
#120=LINE('',#882,#192);
#121=LINE('',#883,#193);
#122=LINE('',#887,#194);
#123=LINE('',#890,#195);
#124=LINE('',#891,#196);
#125=LINE('',#895,#197);
#126=LINE('',#898,#198);
#127=LINE('',#899,#199);
#128=LINE('',#902,#200);
#129=LINE('',#903,#201);
#130=LINE('',#906,#202);
#131=LINE('',#907,#203);
#132=LINE('',#911,#204);
#133=LINE('',#913,#205);
#134=LINE('',#915,#206);
#135=LINE('',#920,#207);
#136=LINE('',#922,#208);
#137=LINE('',#924,#209);
#138=LINE('',#925,#210);
#139=LINE('',#928,#211);
#140=LINE('',#930,#212);
#141=LINE('',#931,#213);
#142=LINE('',#937,#214);
#143=LINE('',#941,#215);
#144=LINE('',#943,#216);
#145=LINE('',#945,#217);
#146=LINE('',#948,#218);
#147=LINE('',#950,#219);
#148=LINE('',#952,#220);
#149=LINE('',#954,#221);
#150=LINE('',#955,#222);
#151=LINE('',#960,#223);
#152=LINE('',#961,#224);
#153=LINE('',#964,#225);
#154=LINE('',#965,#226);
#155=LINE('',#968,#227);
#156=LINE('',#969,#228);
#157=LINE('',#973,#229);
#158=LINE('',#976,#230);
#159=LINE('',#977,#231);
#160=LINE('',#980,#232);
#161=LINE('',#981,#233);
#162=LINE('',#984,#234);
#163=LINE('',#985,#235);
#164=LINE('',#988,#236);
#165=LINE('',#989,#237);
#166=LINE('',#993,#238);
#167=LINE('',#996,#239);
#168=LINE('',#997,#240);
#169=LINE('',#999,#241);
#170=LINE('',#1001,#242);
#171=VECTOR('',#672,10.);
#172=VECTOR('',#673,10.);
#173=VECTOR('',#674,10.);
#174=VECTOR('',#675,10.);
#175=VECTOR('',#678,10.);
#176=VECTOR('',#679,10.);
#177=VECTOR('',#680,10.);
#178=VECTOR('',#683,10.);
#179=VECTOR('',#684,10.);
#180=VECTOR('',#685,10.);
#181=VECTOR('',#686,10.);
#182=VECTOR('',#687,10.);
#183=VECTOR('',#690,10.);
#184=VECTOR('',#693,10.);
#185=VECTOR('',#694,10.);
#186=VECTOR('',#695,10.);
#187=VECTOR('',#700,10.);
#188=VECTOR('',#701,10.);
#189=VECTOR('',#702,10.);
#190=VECTOR('',#705,10.);
#191=VECTOR('',#706,10.);
#192=VECTOR('',#709,10.);
#193=VECTOR('',#710,10.);
#194=VECTOR('',#715,10.);
#195=VECTOR('',#718,10.);
#196=VECTOR('',#719,10.);
#197=VECTOR('',#724,10.);
#198=VECTOR('',#727,10.);
#199=VECTOR('',#728,10.);
#200=VECTOR('',#731,10.);
#201=VECTOR('',#732,10.);
#202=VECTOR('',#735,10.);
#203=VECTOR('',#736,10.);
#204=VECTOR('',#741,10.);
#205=VECTOR('',#744,10.);
#206=VECTOR('',#747,10.);
#207=VECTOR('',#752,10.);
#208=VECTOR('',#753,10.);
#209=VECTOR('',#754,10.);
#210=VECTOR('',#755,10.);
#211=VECTOR('',#758,10.);
#212=VECTOR('',#759,10.);
#213=VECTOR('',#760,10.);
#214=VECTOR('',#765,10.);
#215=VECTOR('',#768,10.);
#216=VECTOR('',#769,10.);
#217=VECTOR('',#770,10.);
#218=VECTOR('',#773,10.);
#219=VECTOR('',#774,10.);
#220=VECTOR('',#775,10.);
#221=VECTOR('',#776,10.);
#222=VECTOR('',#777,10.);
#223=VECTOR('',#782,10.);
#224=VECTOR('',#783,10.);
#225=VECTOR('',#786,10.);
#226=VECTOR('',#787,10.);
#227=VECTOR('',#790,10.);
#228=VECTOR('',#791,10.);
#229=VECTOR('',#796,10.);
#230=VECTOR('',#799,10.);
#231=VECTOR('',#800,10.);
#232=VECTOR('',#803,10.);
#233=VECTOR('',#804,10.);
#234=VECTOR('',#807,10.);
#235=VECTOR('',#808,10.);
#236=VECTOR('',#811,10.);
#237=VECTOR('',#812,10.);
#238=VECTOR('',#817,10.);
#239=VECTOR('',#820,10.);
#240=VECTOR('',#821,10.);
#241=VECTOR('',#824,10.);
#242=VECTOR('',#827,10.);
#243=VERTEX_POINT('',#832);
#244=VERTEX_POINT('',#833);
#245=VERTEX_POINT('',#835);
#246=VERTEX_POINT('',#837);
#247=VERTEX_POINT('',#841);
#248=VERTEX_POINT('',#843);
#249=VERTEX_POINT('',#847);
#250=VERTEX_POINT('',#849);
#251=VERTEX_POINT('',#851);
#252=VERTEX_POINT('',#853);
#253=VERTEX_POINT('',#855);
#254=VERTEX_POINT('',#857);
#255=VERTEX_POINT('',#859);
#256=VERTEX_POINT('',#861);
#257=VERTEX_POINT('',#863);
#258=VERTEX_POINT('',#865);
#259=VERTEX_POINT('',#867);
#260=VERTEX_POINT('',#871);
#261=VERTEX_POINT('',#873);
#262=VERTEX_POINT('',#877);
#263=VERTEX_POINT('',#881);
#264=VERTEX_POINT('',#885);
#265=VERTEX_POINT('',#889);
#266=VERTEX_POINT('',#893);
#267=VERTEX_POINT('',#897);
#268=VERTEX_POINT('',#901);
#269=VERTEX_POINT('',#905);
#270=VERTEX_POINT('',#909);
#271=VERTEX_POINT('',#918);
#272=VERTEX_POINT('',#919);
#273=VERTEX_POINT('',#921);
#274=VERTEX_POINT('',#923);
#275=VERTEX_POINT('',#927);
#276=VERTEX_POINT('',#929);
#277=VERTEX_POINT('',#933);
#278=VERTEX_POINT('',#934);
#279=VERTEX_POINT('',#936);
#280=VERTEX_POINT('',#938);
#281=VERTEX_POINT('',#940);
#282=VERTEX_POINT('',#942);
#283=VERTEX_POINT('',#944);
#284=VERTEX_POINT('',#946);
#285=VERTEX_POINT('',#949);
#286=VERTEX_POINT('',#951);
#287=VERTEX_POINT('',#953);
#288=VERTEX_POINT('',#957);
#289=VERTEX_POINT('',#958);
#290=VERTEX_POINT('',#963);
#291=VERTEX_POINT('',#967);
#292=VERTEX_POINT('',#971);
#293=VERTEX_POINT('',#975);
#294=VERTEX_POINT('',#979);
#295=VERTEX_POINT('',#983);
#296=VERTEX_POINT('',#987);
#297=VERTEX_POINT('',#991);
#298=VERTEX_POINT('',#995);
#299=EDGE_CURVE('',#243,#244,#99,.T.);
#300=EDGE_CURVE('',#244,#245,#100,.T.);
#301=EDGE_CURVE('',#246,#245,#101,.T.);
#302=EDGE_CURVE('',#243,#246,#102,.T.);
#303=EDGE_CURVE('',#245,#247,#103,.T.);
#304=EDGE_CURVE('',#247,#248,#104,.T.);
#305=EDGE_CURVE('',#248,#246,#105,.T.);
#306=EDGE_CURVE('',#249,#243,#106,.T.);
#307=EDGE_CURVE('',#250,#248,#107,.T.);
#308=EDGE_CURVE('',#250,#251,#108,.T.);
#309=EDGE_CURVE('',#251,#252,#109,.T.);
#310=EDGE_CURVE('',#252,#253,#110,.T.);
#311=EDGE_CURVE('',#253,#254,#23,.T.);
#312=EDGE_CURVE('',#254,#255,#111,.T.);
#313=EDGE_CURVE('',#255,#256,#24,.T.);
#314=EDGE_CURVE('',#256,#257,#112,.T.);
#315=EDGE_CURVE('',#257,#258,#113,.T.);
#316=EDGE_CURVE('',#258,#259,#114,.T.);
#317=EDGE_CURVE('',#259,#249,#25,.T.);
#318=EDGE_CURVE('',#250,#260,#115,.T.);
#319=EDGE_CURVE('',#261,#260,#116,.T.);
#320=EDGE_CURVE('',#251,#261,#117,.T.);
#321=EDGE_CURVE('',#262,#261,#118,.T.);
#322=EDGE_CURVE('',#252,#262,#119,.T.);
#323=EDGE_CURVE('',#263,#262,#120,.T.);
#324=EDGE_CURVE('',#253,#263,#121,.T.);
#325=EDGE_CURVE('',#263,#264,#26,.T.);
#326=EDGE_CURVE('',#264,#254,#122,.T.);
#327=EDGE_CURVE('',#265,#264,#123,.T.);
#328=EDGE_CURVE('',#255,#265,#124,.T.);
#329=EDGE_CURVE('',#265,#266,#27,.T.);
#330=EDGE_CURVE('',#266,#256,#125,.T.);
#331=EDGE_CURVE('',#267,#266,#126,.T.);
#332=EDGE_CURVE('',#257,#267,#127,.T.);
#333=EDGE_CURVE('',#268,#267,#128,.T.);
#334=EDGE_CURVE('',#258,#268,#129,.T.);
#335=EDGE_CURVE('',#269,#268,#130,.T.);
#336=EDGE_CURVE('',#259,#269,#131,.T.);
#337=EDGE_CURVE('',#270,#269,#28,.T.);
#338=EDGE_CURVE('',#249,#270,#132,.T.);
#339=EDGE_CURVE('',#244,#270,#133,.T.);
#340=EDGE_CURVE('',#260,#247,#134,.T.);
#341=EDGE_CURVE('',#271,#272,#135,.T.);
#342=EDGE_CURVE('',#272,#273,#136,.T.);
#343=EDGE_CURVE('',#274,#273,#137,.T.);
#344=EDGE_CURVE('',#271,#274,#138,.T.);
#345=EDGE_CURVE('',#273,#275,#139,.T.);
#346=EDGE_CURVE('',#275,#276,#140,.T.);
#347=EDGE_CURVE('',#276,#274,#141,.T.);
#348=EDGE_CURVE('',#277,#278,#29,.T.);
#349=EDGE_CURVE('',#279,#277,#142,.T.);
#350=EDGE_CURVE('',#280,#279,#30,.T.);
#351=EDGE_CURVE('',#281,#280,#143,.T.);
#352=EDGE_CURVE('',#281,#282,#144,.T.);
#353=EDGE_CURVE('',#282,#283,#145,.T.);
#354=EDGE_CURVE('',#284,#283,#31,.T.);
#355=EDGE_CURVE('',#284,#271,#146,.T.);
#356=EDGE_CURVE('',#285,#276,#147,.T.);
#357=EDGE_CURVE('',#285,#286,#148,.T.);
#358=EDGE_CURVE('',#286,#287,#149,.T.);
#359=EDGE_CURVE('',#278,#287,#150,.T.);
#360=EDGE_CURVE('',#288,#289,#32,.T.);
#361=EDGE_CURVE('',#289,#280,#151,.T.);
#362=EDGE_CURVE('',#279,#288,#152,.T.);
#363=EDGE_CURVE('',#290,#288,#153,.T.);
#364=EDGE_CURVE('',#290,#277,#154,.T.);
#365=EDGE_CURVE('',#289,#291,#155,.T.);
#366=EDGE_CURVE('',#281,#291,#156,.T.);
#367=EDGE_CURVE('',#292,#290,#33,.T.);
#368=EDGE_CURVE('',#278,#292,#157,.T.);
#369=EDGE_CURVE('',#291,#293,#158,.T.);
#370=EDGE_CURVE('',#282,#293,#159,.T.);
#371=EDGE_CURVE('',#294,#292,#160,.T.);
#372=EDGE_CURVE('',#287,#294,#161,.T.);
#373=EDGE_CURVE('',#293,#295,#162,.T.);
#374=EDGE_CURVE('',#283,#295,#163,.T.);
#375=EDGE_CURVE('',#296,#294,#164,.T.);
#376=EDGE_CURVE('',#286,#296,#165,.T.);
#377=EDGE_CURVE('',#295,#297,#34,.T.);
#378=EDGE_CURVE('',#284,#297,#166,.T.);
#379=EDGE_CURVE('',#298,#296,#167,.T.);
#380=EDGE_CURVE('',#285,#298,#168,.T.);
#381=EDGE_CURVE('',#297,#272,#169,.T.);
#382=EDGE_CURVE('',#275,#298,#170,.T.);
#383=ORIENTED_EDGE('',*,*,#299,.T.);
#384=ORIENTED_EDGE('',*,*,#300,.T.);
#385=ORIENTED_EDGE('',*,*,#301,.F.);
#386=ORIENTED_EDGE('',*,*,#302,.F.);
#387=ORIENTED_EDGE('',*,*,#301,.T.);
#388=ORIENTED_EDGE('',*,*,#303,.T.);
#389=ORIENTED_EDGE('',*,*,#304,.T.);
#390=ORIENTED_EDGE('',*,*,#305,.T.);
#391=ORIENTED_EDGE('',*,*,#306,.T.);
#392=ORIENTED_EDGE('',*,*,#302,.T.);
#393=ORIENTED_EDGE('',*,*,#305,.F.);
#394=ORIENTED_EDGE('',*,*,#307,.F.);
#395=ORIENTED_EDGE('',*,*,#308,.T.);
#396=ORIENTED_EDGE('',*,*,#309,.T.);
#397=ORIENTED_EDGE('',*,*,#310,.T.);
#398=ORIENTED_EDGE('',*,*,#311,.T.);
#399=ORIENTED_EDGE('',*,*,#312,.T.);
#400=ORIENTED_EDGE('',*,*,#313,.T.);
#401=ORIENTED_EDGE('',*,*,#314,.T.);
#402=ORIENTED_EDGE('',*,*,#315,.T.);
#403=ORIENTED_EDGE('',*,*,#316,.T.);
#404=ORIENTED_EDGE('',*,*,#317,.T.);
#405=ORIENTED_EDGE('',*,*,#318,.T.);
#406=ORIENTED_EDGE('',*,*,#319,.F.);
#407=ORIENTED_EDGE('',*,*,#320,.F.);
#408=ORIENTED_EDGE('',*,*,#308,.F.);
#409=ORIENTED_EDGE('',*,*,#320,.T.);
#410=ORIENTED_EDGE('',*,*,#321,.F.);
#411=ORIENTED_EDGE('',*,*,#322,.F.);
#412=ORIENTED_EDGE('',*,*,#309,.F.);
#413=ORIENTED_EDGE('',*,*,#322,.T.);
#414=ORIENTED_EDGE('',*,*,#323,.F.);
#415=ORIENTED_EDGE('',*,*,#324,.F.);
#416=ORIENTED_EDGE('',*,*,#310,.F.);
#417=ORIENTED_EDGE('',*,*,#324,.T.);
#418=ORIENTED_EDGE('',*,*,#325,.T.);
#419=ORIENTED_EDGE('',*,*,#326,.T.);
#420=ORIENTED_EDGE('',*,*,#311,.F.);
#421=ORIENTED_EDGE('',*,*,#326,.F.);
#422=ORIENTED_EDGE('',*,*,#327,.F.);
#423=ORIENTED_EDGE('',*,*,#328,.F.);
#424=ORIENTED_EDGE('',*,*,#312,.F.);
#425=ORIENTED_EDGE('',*,*,#328,.T.);
#426=ORIENTED_EDGE('',*,*,#329,.T.);
#427=ORIENTED_EDGE('',*,*,#330,.T.);
#428=ORIENTED_EDGE('',*,*,#313,.F.);
#429=ORIENTED_EDGE('',*,*,#330,.F.);
#430=ORIENTED_EDGE('',*,*,#331,.F.);
#431=ORIENTED_EDGE('',*,*,#332,.F.);
#432=ORIENTED_EDGE('',*,*,#314,.F.);
#433=ORIENTED_EDGE('',*,*,#332,.T.);
#434=ORIENTED_EDGE('',*,*,#333,.F.);
#435=ORIENTED_EDGE('',*,*,#334,.F.);
#436=ORIENTED_EDGE('',*,*,#315,.F.);
#437=ORIENTED_EDGE('',*,*,#334,.T.);
#438=ORIENTED_EDGE('',*,*,#335,.F.);
#439=ORIENTED_EDGE('',*,*,#336,.F.);
#440=ORIENTED_EDGE('',*,*,#316,.F.);
#441=ORIENTED_EDGE('',*,*,#336,.T.);
#442=ORIENTED_EDGE('',*,*,#337,.F.);
#443=ORIENTED_EDGE('',*,*,#338,.F.);
#444=ORIENTED_EDGE('',*,*,#317,.F.);
#445=ORIENTED_EDGE('',*,*,#338,.T.);
#446=ORIENTED_EDGE('',*,*,#339,.F.);
#447=ORIENTED_EDGE('',*,*,#299,.F.);
#448=ORIENTED_EDGE('',*,*,#306,.F.);
#449=ORIENTED_EDGE('',*,*,#340,.F.);
#450=ORIENTED_EDGE('',*,*,#318,.F.);
#451=ORIENTED_EDGE('',*,*,#307,.T.);
#452=ORIENTED_EDGE('',*,*,#304,.F.);
#453=ORIENTED_EDGE('',*,*,#325,.F.);
#454=ORIENTED_EDGE('',*,*,#323,.T.);
#455=ORIENTED_EDGE('',*,*,#321,.T.);
#456=ORIENTED_EDGE('',*,*,#319,.T.);
#457=ORIENTED_EDGE('',*,*,#340,.T.);
#458=ORIENTED_EDGE('',*,*,#303,.F.);
#459=ORIENTED_EDGE('',*,*,#300,.F.);
#460=ORIENTED_EDGE('',*,*,#339,.T.);
#461=ORIENTED_EDGE('',*,*,#337,.T.);
#462=ORIENTED_EDGE('',*,*,#335,.T.);
#463=ORIENTED_EDGE('',*,*,#333,.T.);
#464=ORIENTED_EDGE('',*,*,#331,.T.);
#465=ORIENTED_EDGE('',*,*,#329,.F.);
#466=ORIENTED_EDGE('',*,*,#327,.T.);
#467=ORIENTED_EDGE('',*,*,#341,.T.);
#468=ORIENTED_EDGE('',*,*,#342,.T.);
#469=ORIENTED_EDGE('',*,*,#343,.F.);
#470=ORIENTED_EDGE('',*,*,#344,.F.);
#471=ORIENTED_EDGE('',*,*,#345,.T.);
#472=ORIENTED_EDGE('',*,*,#346,.T.);
#473=ORIENTED_EDGE('',*,*,#347,.T.);
#474=ORIENTED_EDGE('',*,*,#343,.T.);
#475=ORIENTED_EDGE('',*,*,#348,.F.);
#476=ORIENTED_EDGE('',*,*,#349,.F.);
#477=ORIENTED_EDGE('',*,*,#350,.F.);
#478=ORIENTED_EDGE('',*,*,#351,.F.);
#479=ORIENTED_EDGE('',*,*,#352,.T.);
#480=ORIENTED_EDGE('',*,*,#353,.T.);
#481=ORIENTED_EDGE('',*,*,#354,.F.);
#482=ORIENTED_EDGE('',*,*,#355,.T.);
#483=ORIENTED_EDGE('',*,*,#344,.T.);
#484=ORIENTED_EDGE('',*,*,#347,.F.);
#485=ORIENTED_EDGE('',*,*,#356,.F.);
#486=ORIENTED_EDGE('',*,*,#357,.T.);
#487=ORIENTED_EDGE('',*,*,#358,.T.);
#488=ORIENTED_EDGE('',*,*,#359,.F.);
#489=ORIENTED_EDGE('',*,*,#360,.T.);
#490=ORIENTED_EDGE('',*,*,#361,.T.);
#491=ORIENTED_EDGE('',*,*,#350,.T.);
#492=ORIENTED_EDGE('',*,*,#362,.T.);
#493=ORIENTED_EDGE('',*,*,#363,.T.);
#494=ORIENTED_EDGE('',*,*,#362,.F.);
#495=ORIENTED_EDGE('',*,*,#349,.T.);
#496=ORIENTED_EDGE('',*,*,#364,.F.);
#497=ORIENTED_EDGE('',*,*,#365,.T.);
#498=ORIENTED_EDGE('',*,*,#366,.F.);
#499=ORIENTED_EDGE('',*,*,#351,.T.);
#500=ORIENTED_EDGE('',*,*,#361,.F.);
#501=ORIENTED_EDGE('',*,*,#367,.T.);
#502=ORIENTED_EDGE('',*,*,#364,.T.);
#503=ORIENTED_EDGE('',*,*,#348,.T.);
#504=ORIENTED_EDGE('',*,*,#368,.T.);
#505=ORIENTED_EDGE('',*,*,#369,.T.);
#506=ORIENTED_EDGE('',*,*,#370,.F.);
#507=ORIENTED_EDGE('',*,*,#352,.F.);
#508=ORIENTED_EDGE('',*,*,#366,.T.);
#509=ORIENTED_EDGE('',*,*,#371,.T.);
#510=ORIENTED_EDGE('',*,*,#368,.F.);
#511=ORIENTED_EDGE('',*,*,#359,.T.);
#512=ORIENTED_EDGE('',*,*,#372,.T.);
#513=ORIENTED_EDGE('',*,*,#373,.T.);
#514=ORIENTED_EDGE('',*,*,#374,.F.);
#515=ORIENTED_EDGE('',*,*,#353,.F.);
#516=ORIENTED_EDGE('',*,*,#370,.T.);
#517=ORIENTED_EDGE('',*,*,#375,.T.);
#518=ORIENTED_EDGE('',*,*,#372,.F.);
#519=ORIENTED_EDGE('',*,*,#358,.F.);
#520=ORIENTED_EDGE('',*,*,#376,.T.);
#521=ORIENTED_EDGE('',*,*,#377,.T.);
#522=ORIENTED_EDGE('',*,*,#378,.F.);
#523=ORIENTED_EDGE('',*,*,#354,.T.);
#524=ORIENTED_EDGE('',*,*,#374,.T.);
#525=ORIENTED_EDGE('',*,*,#379,.T.);
#526=ORIENTED_EDGE('',*,*,#376,.F.);
#527=ORIENTED_EDGE('',*,*,#357,.F.);
#528=ORIENTED_EDGE('',*,*,#380,.T.);
#529=ORIENTED_EDGE('',*,*,#381,.T.);
#530=ORIENTED_EDGE('',*,*,#341,.F.);
#531=ORIENTED_EDGE('',*,*,#355,.F.);
#532=ORIENTED_EDGE('',*,*,#378,.T.);
#533=ORIENTED_EDGE('',*,*,#382,.T.);
#534=ORIENTED_EDGE('',*,*,#380,.F.);
#535=ORIENTED_EDGE('',*,*,#356,.T.);
#536=ORIENTED_EDGE('',*,*,#346,.F.);
#537=ORIENTED_EDGE('',*,*,#381,.F.);
#538=ORIENTED_EDGE('',*,*,#377,.F.);
#539=ORIENTED_EDGE('',*,*,#373,.F.);
#540=ORIENTED_EDGE('',*,*,#369,.F.);
#541=ORIENTED_EDGE('',*,*,#365,.F.);
#542=ORIENTED_EDGE('',*,*,#360,.F.);
#543=ORIENTED_EDGE('',*,*,#363,.F.);
#544=ORIENTED_EDGE('',*,*,#367,.F.);
#545=ORIENTED_EDGE('',*,*,#371,.F.);
#546=ORIENTED_EDGE('',*,*,#375,.F.);
#547=ORIENTED_EDGE('',*,*,#379,.F.);
#548=ORIENTED_EDGE('',*,*,#382,.F.);
#549=ORIENTED_EDGE('',*,*,#345,.F.);
#550=ORIENTED_EDGE('',*,*,#342,.F.);
#551=PLANE('',#624);
#552=PLANE('',#625);
#553=PLANE('',#626);
#554=PLANE('',#630);
#555=PLANE('',#631);
#556=PLANE('',#632);
#557=PLANE('',#635);
#558=PLANE('',#638);
#559=PLANE('',#639);
#560=PLANE('',#640);
#561=PLANE('',#643);
#562=PLANE('',#644);
#563=PLANE('',#645);
#564=PLANE('',#646);
#565=PLANE('',#647);
#566=PLANE('',#648);
#567=PLANE('',#654);
#568=PLANE('',#655);
#569=PLANE('',#658);
#570=PLANE('',#659);
#571=PLANE('',#660);
#572=PLANE('',#661);
#573=PLANE('',#664);
#574=PLANE('',#665);
#575=PLANE('',#666);
#576=PLANE('',#667);
#577=ADVANCED_FACE('',(#35),#551,.T.);
#578=ADVANCED_FACE('',(#36),#552,.T.);
#579=ADVANCED_FACE('',(#37),#553,.F.);
#580=ADVANCED_FACE('',(#38),#554,.T.);
#581=ADVANCED_FACE('',(#39),#555,.T.);
#582=ADVANCED_FACE('',(#40),#556,.T.);
#583=ADVANCED_FACE('',(#41),#17,.T.);
#584=ADVANCED_FACE('',(#42),#557,.T.);
#585=ADVANCED_FACE('',(#43),#18,.T.);
#586=ADVANCED_FACE('',(#44),#558,.T.);
#587=ADVANCED_FACE('',(#45),#559,.T.);
#588=ADVANCED_FACE('',(#46),#560,.T.);
#589=ADVANCED_FACE('',(#47),#19,.T.);
#590=ADVANCED_FACE('',(#48),#561,.T.);
#591=ADVANCED_FACE('',(#49),#562,.T.);
#592=ADVANCED_FACE('',(#50),#563,.T.);
#593=ADVANCED_FACE('',(#51),#564,.T.);
#594=ADVANCED_FACE('',(#52),#565,.T.);
#595=ADVANCED_FACE('',(#53),#566,.F.);
#596=ADVANCED_FACE('',(#54),#20,.T.);
#597=ADVANCED_FACE('',(#55),#567,.T.);
#598=ADVANCED_FACE('',(#56),#568,.T.);
#599=ADVANCED_FACE('',(#57),#21,.T.);
#600=ADVANCED_FACE('',(#58),#569,.T.);
#601=ADVANCED_FACE('',(#59),#570,.T.);
#602=ADVANCED_FACE('',(#60),#571,.T.);
#603=ADVANCED_FACE('',(#61),#572,.T.);
#604=ADVANCED_FACE('',(#62),#22,.T.);
#605=ADVANCED_FACE('',(#63),#573,.T.);
#606=ADVANCED_FACE('',(#64),#574,.T.);
#607=ADVANCED_FACE('',(#65),#575,.T.);
#608=ADVANCED_FACE('',(#66),#576,.F.);
#609=CLOSED_SHELL('',(#577,#578,#579,#580,#581,#582,#583,#584,#585,#586,
#587,#588,#589,#590,#591,#592));
#610=CLOSED_SHELL('',(#593,#594,#595,#596,#597,#598,#599,#600,#601,#602,
#603,#604,#605,#606,#607,#608));
#611=DERIVED_UNIT_ELEMENT(#613,1.);
#612=DERIVED_UNIT_ELEMENT(#1008,-3.);
#613=(
MASS_UNIT()
NAMED_UNIT(*)
SI_UNIT(.KILO.,.GRAM.)
);
#614=DERIVED_UNIT((#611,#612));
#615=MEASURE_REPRESENTATION_ITEM('density measure',
POSITIVE_RATIO_MEASURE(7850.),#614);
#616=PROPERTY_DEFINITION_REPRESENTATION(#621,#618);
#617=PROPERTY_DEFINITION_REPRESENTATION(#622,#619);
#618=REPRESENTATION('material name',(#620),#1005);
#619=REPRESENTATION('density',(#615),#1005);
#620=DESCRIPTIVE_REPRESENTATION_ITEM('Steel','Steel');
#621=PROPERTY_DEFINITION('material property','material name',#1015);
#622=PROPERTY_DEFINITION('material property','density of part',#1015);
#623=AXIS2_PLACEMENT_3D('',#830,#668,#669);
#624=AXIS2_PLACEMENT_3D('',#831,#670,#671);
#625=AXIS2_PLACEMENT_3D('',#840,#676,#677);
#626=AXIS2_PLACEMENT_3D('',#846,#681,#682);
#627=AXIS2_PLACEMENT_3D('',#858,#688,#689);
#628=AXIS2_PLACEMENT_3D('',#862,#691,#692);
#629=AXIS2_PLACEMENT_3D('',#869,#696,#697);
#630=AXIS2_PLACEMENT_3D('',#870,#698,#699);
#631=AXIS2_PLACEMENT_3D('',#876,#703,#704);
#632=AXIS2_PLACEMENT_3D('',#880,#707,#708);
#633=AXIS2_PLACEMENT_3D('',#884,#711,#712);
#634=AXIS2_PLACEMENT_3D('',#886,#713,#714);
#635=AXIS2_PLACEMENT_3D('',#888,#716,#717);
#636=AXIS2_PLACEMENT_3D('',#892,#720,#721);
#637=AXIS2_PLACEMENT_3D('',#894,#722,#723);
#638=AXIS2_PLACEMENT_3D('',#896,#725,#726);
#639=AXIS2_PLACEMENT_3D('',#900,#729,#730);
#640=AXIS2_PLACEMENT_3D('',#904,#733,#734);
#641=AXIS2_PLACEMENT_3D('',#908,#737,#738);
#642=AXIS2_PLACEMENT_3D('',#910,#739,#740);
#643=AXIS2_PLACEMENT_3D('',#912,#742,#743);
#644=AXIS2_PLACEMENT_3D('',#914,#745,#746);
#645=AXIS2_PLACEMENT_3D('',#916,#748,#749);
#646=AXIS2_PLACEMENT_3D('',#917,#750,#751);
#647=AXIS2_PLACEMENT_3D('',#926,#756,#757);
#648=AXIS2_PLACEMENT_3D('',#932,#761,#762);
#649=AXIS2_PLACEMENT_3D('',#935,#763,#764);
#650=AXIS2_PLACEMENT_3D('',#939,#766,#767);
#651=AXIS2_PLACEMENT_3D('',#947,#771,#772);
#652=AXIS2_PLACEMENT_3D('',#956,#778,#779);
#653=AXIS2_PLACEMENT_3D('',#959,#780,#781);
#654=AXIS2_PLACEMENT_3D('',#962,#784,#785);
#655=AXIS2_PLACEMENT_3D('',#966,#788,#789);
#656=AXIS2_PLACEMENT_3D('',#970,#792,#793);
#657=AXIS2_PLACEMENT_3D('',#972,#794,#795);
#658=AXIS2_PLACEMENT_3D('',#974,#797,#798);
#659=AXIS2_PLACEMENT_3D('',#978,#801,#802);
#660=AXIS2_PLACEMENT_3D('',#982,#805,#806);
#661=AXIS2_PLACEMENT_3D('',#986,#809,#810);
#662=AXIS2_PLACEMENT_3D('',#990,#813,#814);
#663=AXIS2_PLACEMENT_3D('',#992,#815,#816);
#664=AXIS2_PLACEMENT_3D('',#994,#818,#819);
#665=AXIS2_PLACEMENT_3D('',#998,#822,#823);
#666=AXIS2_PLACEMENT_3D('',#1000,#825,#826);
#667=AXIS2_PLACEMENT_3D('',#1002,#828,#829);
#668=DIRECTION('axis',(0.,0.,1.));
#669=DIRECTION('refdir',(1.,0.,0.));
#670=DIRECTION('center_axis',(1.,0.,0.));
#671=DIRECTION('ref_axis',(0.,1.,0.));
#672=DIRECTION('',(0.,1.,0.));
#673=DIRECTION('',(0.,0.,1.));
#674=DIRECTION('',(0.,1.,0.));
#675=DIRECTION('',(0.,0.,1.));
#676=DIRECTION('center_axis',(0.,0.,1.));
#677=DIRECTION('ref_axis',(1.,0.,0.));
#678=DIRECTION('',(-1.,0.,0.));
#679=DIRECTION('',(0.,-1.,0.));
#680=DIRECTION('',(1.,0.,0.));
#681=DIRECTION('center_axis',(0.,1.,0.));
#682=DIRECTION('ref_axis',(1.,0.,0.));
#683=DIRECTION('',(0.346305067828417,0.,0.938121953690646));
#684=DIRECTION('',(0.,0.,1.));
#685=DIRECTION('',(1.,0.,0.));
#686=DIRECTION('',(0.707106781186548,0.,-0.707106781186547));
#687=DIRECTION('',(-0.314879369094669,0.,-0.949131699459323));
#688=DIRECTION('center_axis',(0.,-1.,0.));
#689=DIRECTION('ref_axis',(-0.895166941970427,0.,-0.445731024277327));
#690=DIRECTION('',(0.94717540795371,0.,-0.320715990508305));
#691=DIRECTION('center_axis',(0.,-1.,0.));
#692=DIRECTION('ref_axis',(0.421167287094194,0.,-0.906982974637185));
#693=DIRECTION('',(0.366130289468099,0.,0.930563598650842));
#694=DIRECTION('',(0.940288127010419,0.,-0.34037955021305));
#695=DIRECTION('',(-0.34037955021305,0.,-0.940288127010419));
#696=DIRECTION('center_axis',(0.,-1.,0.));
#697=DIRECTION('ref_axis',(0.752199486883171,0.,-0.658935453540553));
#698=DIRECTION('center_axis',(0.,0.,-1.));
#699=DIRECTION('ref_axis',(-1.,0.,0.));
#700=DIRECTION('',(0.,1.,0.));
#701=DIRECTION('',(-1.,0.,0.));
#702=DIRECTION('',(0.,1.,0.));
#703=DIRECTION('center_axis',(-0.707106781186547,0.,-0.707106781186548));
#704=DIRECTION('ref_axis',(-0.707106781186548,0.,0.707106781186547));
#705=DIRECTION('',(-0.707106781186548,0.,0.707106781186547));
#706=DIRECTION('',(0.,1.,0.));
#707=DIRECTION('center_axis',(-0.949131699459323,0.,0.314879369094669));
#708=DIRECTION('ref_axis',(0.314879369094669,0.,0.949131699459323));
#709=DIRECTION('',(0.314879369094669,0.,0.949131699459323));
#710=DIRECTION('',(0.,1.,0.));
#711=DIRECTION('center_axis',(0.,1.,0.));
#712=DIRECTION('ref_axis',(-0.895166941970427,0.,-0.445731024277327));
#713=DIRECTION('center_axis',(0.,-1.,0.));
#714=DIRECTION('ref_axis',(-0.895166941970427,0.,-0.445731024277327));
#715=DIRECTION('',(0.,-1.,0.));
#716=DIRECTION('center_axis',(-0.320715990508305,0.,-0.94717540795371));
#717=DIRECTION('ref_axis',(-0.94717540795371,0.,0.320715990508305));
#718=DIRECTION('',(-0.94717540795371,0.,0.320715990508305));
#719=DIRECTION('',(0.,1.,0.));
#720=DIRECTION('center_axis',(0.,1.,0.));
#721=DIRECTION('ref_axis',(0.421167287094194,0.,-0.906982974637185));
#722=DIRECTION('center_axis',(0.,-1.,0.));
#723=DIRECTION('ref_axis',(0.421167287094194,0.,-0.906982974637185));
#724=DIRECTION('',(0.,-1.,0.));
#725=DIRECTION('center_axis',(0.930563598650842,0.,-0.366130289468099));
#726=DIRECTION('ref_axis',(-0.366130289468099,0.,-0.930563598650842));
#727=DIRECTION('',(-0.366130289468099,0.,-0.930563598650842));
#728=DIRECTION('',(0.,1.,0.));
#729=DIRECTION('center_axis',(-0.34037955021305,0.,-0.940288127010419));
#730=DIRECTION('ref_axis',(-0.940288127010419,0.,0.34037955021305));
#731=DIRECTION('',(-0.940288127010419,0.,0.34037955021305));
#732=DIRECTION('',(0.,1.,0.));
#733=DIRECTION('center_axis',(-0.940288127010419,0.,0.34037955021305));
#734=DIRECTION('ref_axis',(0.34037955021305,0.,0.940288127010419));
#735=DIRECTION('',(0.34037955021305,0.,0.940288127010419));
#736=DIRECTION('',(0.,1.,0.));
#737=DIRECTION('center_axis',(0.,1.,0.));
#738=DIRECTION('ref_axis',(0.752199486883171,0.,-0.658935453540553));
#739=DIRECTION('center_axis',(0.,1.,0.));
#740=DIRECTION('ref_axis',(0.752199486883171,0.,-0.658935453540553));
#741=DIRECTION('',(0.,1.,0.));
#742=DIRECTION('center_axis',(0.938121953690646,0.,-0.346305067828417));
#743=DIRECTION('ref_axis',(-0.346305067828417,0.,-0.938121953690646));
#744=DIRECTION('',(-0.346305067828417,0.,-0.938121953690646));
#745=DIRECTION('center_axis',(-1.,0.,0.));
#746=DIRECTION('ref_axis',(0.,0.,1.));
#747=DIRECTION('',(0.,0.,1.));
#748=DIRECTION('center_axis',(0.,1.,0.));
#749=DIRECTION('ref_axis',(1.,0.,0.));
#750=DIRECTION('center_axis',(1.,0.,0.));
#751=DIRECTION('ref_axis',(0.,1.,0.));
#752=DIRECTION('',(0.,1.,0.));
#753=DIRECTION('',(0.,0.,1.));
#754=DIRECTION('',(0.,1.,0.));
#755=DIRECTION('',(0.,0.,1.));
#756=DIRECTION('center_axis',(0.,0.,1.));
#757=DIRECTION('ref_axis',(1.,0.,0.));
#758=DIRECTION('',(-1.,0.,0.));
#759=DIRECTION('',(0.,-1.,0.));
#760=DIRECTION('',(1.,0.,0.));
#761=DIRECTION('center_axis',(0.,1.,0.));
#762=DIRECTION('ref_axis',(1.,0.,0.));
#763=DIRECTION('center_axis',(0.,1.,0.));
#764=DIRECTION('ref_axis',(-0.895166941970427,0.,-0.445731024277327));
#765=DIRECTION('',(-0.94717540795371,0.,0.320715990508305));
#766=DIRECTION('center_axis',(0.,1.,0.));
#767=DIRECTION('ref_axis',(0.421167287094194,0.,-0.906982974637185));
#768=DIRECTION('',(-0.366130289468099,0.,-0.930563598650842));
#769=DIRECTION('',(0.940288127010419,0.,-0.34037955021305));
#770=DIRECTION('',(-0.34037955021305,0.,-0.940288127010419));
#771=DIRECTION('center_axis',(0.,1.,0.));
#772=DIRECTION('ref_axis',(0.752199486883171,0.,-0.658935453540553));
#773=DIRECTION('',(0.346305067828417,0.,0.938121953690646));
#774=DIRECTION('',(0.,0.,1.));
#775=DIRECTION('',(1.,0.,0.));
#776=DIRECTION('',(0.707106781186548,0.,-0.707106781186547));
#777=DIRECTION('',(0.314879369094669,0.,0.949131699459323));
#778=DIRECTION('center_axis',(0.,1.,0.));
#779=DIRECTION('ref_axis',(0.421167287094194,0.,-0.906982974637185));
#780=DIRECTION('center_axis',(0.,-1.,0.));
#781=DIRECTION('ref_axis',(0.421167287094194,0.,-0.906982974637185));
#782=DIRECTION('',(0.,-1.,0.));
#783=DIRECTION('',(0.,1.,0.));
#784=DIRECTION('center_axis',(-0.320715990508305,0.,-0.94717540795371));
#785=DIRECTION('ref_axis',(-0.94717540795371,0.,0.320715990508305));
#786=DIRECTION('',(0.94717540795371,0.,-0.320715990508305));
#787=DIRECTION('',(0.,-1.,0.));
#788=DIRECTION('center_axis',(0.930563598650842,0.,-0.366130289468099));
#789=DIRECTION('ref_axis',(-0.366130289468099,0.,-0.930563598650842));
#790=DIRECTION('',(0.366130289468099,0.,0.930563598650842));
#791=DIRECTION('',(0.,1.,0.));
#792=DIRECTION('center_axis',(0.,1.,0.));
#793=DIRECTION('ref_axis',(-0.895166941970427,0.,-0.445731024277327));
#794=DIRECTION('center_axis',(0.,-1.,0.));
#795=DIRECTION('ref_axis',(-0.895166941970427,0.,-0.445731024277327));
#796=DIRECTION('',(0.,1.,0.));
#797=DIRECTION('center_axis',(-0.34037955021305,0.,-0.940288127010419));
#798=DIRECTION('ref_axis',(-0.940288127010419,0.,0.34037955021305));
#799=DIRECTION('',(0.940288127010419,0.,-0.34037955021305));
#800=DIRECTION('',(0.,1.,0.));
#801=DIRECTION('center_axis',(-0.949131699459323,0.,0.314879369094669));
#802=DIRECTION('ref_axis',(0.314879369094669,0.,0.949131699459323));
#803=DIRECTION('',(-0.314879369094669,0.,-0.949131699459323));
#804=DIRECTION('',(0.,1.,0.));
#805=DIRECTION('center_axis',(-0.940288127010419,0.,0.34037955021305));
#806=DIRECTION('ref_axis',(0.34037955021305,0.,0.940288127010419));
#807=DIRECTION('',(-0.34037955021305,0.,-0.940288127010419));
#808=DIRECTION('',(0.,1.,0.));
#809=DIRECTION('center_axis',(-0.707106781186547,0.,-0.707106781186548));
#810=DIRECTION('ref_axis',(-0.707106781186548,0.,0.707106781186547));
#811=DIRECTION('',(0.707106781186548,0.,-0.707106781186547));
#812=DIRECTION('',(0.,1.,0.));
#813=DIRECTION('center_axis',(0.,1.,0.));
#814=DIRECTION('ref_axis',(0.752199486883171,0.,-0.658935453540553));
#815=DIRECTION('center_axis',(0.,-1.,0.));
#816=DIRECTION('ref_axis',(0.752199486883171,0.,-0.658935453540553));
#817=DIRECTION('',(0.,1.,0.));
#818=DIRECTION('center_axis',(0.,0.,-1.));
#819=DIRECTION('ref_axis',(-1.,0.,0.));
#820=DIRECTION('',(1.,0.,0.));
#821=DIRECTION('',(0.,1.,0.));
#822=DIRECTION('center_axis',(0.938121953690646,0.,-0.346305067828417));
#823=DIRECTION('ref_axis',(-0.346305067828417,0.,-0.938121953690646));
#824=DIRECTION('',(0.346305067828417,0.,0.938121953690646));
#825=DIRECTION('center_axis',(-1.,0.,0.));
#826=DIRECTION('ref_axis',(0.,0.,1.));
#827=DIRECTION('',(0.,0.,-1.));
#828=DIRECTION('center_axis',(0.,-1.,0.));
#829=DIRECTION('ref_axis',(-1.,0.,0.));
#830=CARTESIAN_POINT('',(0.,0.,0.));
#831=CARTESIAN_POINT('Origin',(26.4713819279548,-0.000334888353921148,-26.7644178070731));
#832=CARTESIAN_POINT('',(26.4713819279548,-0.000334888353921842,-26.7644178070731));
#833=CARTESIAN_POINT('',(26.4713819279548,15.,-26.7644178070731));
#834=CARTESIAN_POINT('',(26.4713819279548,-15.,-26.7644178070731));
#835=CARTESIAN_POINT('',(26.4713819279548,15.,-24.7644178070731));
#836=CARTESIAN_POINT('',(26.4713819279548,15.,-26.7644178070731));
#837=CARTESIAN_POINT('',(26.4713819279548,-0.000334888353921842,-24.7644178070731));
#838=CARTESIAN_POINT('',(26.4713819279548,-15.,-24.7644178070731));
#839=CARTESIAN_POINT('',(26.4713819279548,-0.000334888353921842,-26.7644178070731));
#840=CARTESIAN_POINT('Origin',(-92.2360198022626,-15.,-24.7644178070731));
#841=CARTESIAN_POINT('',(-92.2360198022626,15.,-24.7644178070731));
#842=CARTESIAN_POINT('',(-48.3540938905472,15.,-24.7644178070731));
#843=CARTESIAN_POINT('',(-92.2360198022626,-0.000334888353921842,-24.7644178070731));
#844=CARTESIAN_POINT('',(-92.2360198022626,-15.,-24.7644178070731));
#845=CARTESIAN_POINT('',(-92.2360198022626,-0.000334888353921842,-24.7644178070731));
#846=CARTESIAN_POINT('Origin',(-92.2360198022626,-0.000334888353921842,
-26.7644178070731));
#847=CARTESIAN_POINT('',(19.0048223030154,-0.000334888353921842,-46.9909294969522));
#848=CARTESIAN_POINT('',(19.3532587733484,-0.000334888353921842,-46.047033687585));
#849=CARTESIAN_POINT('',(-92.2360198022626,-0.000334888353921842,-30.));
#850=CARTESIAN_POINT('',(-92.2360198022626,-0.000334888353921842,-26.7644178070731));
#851=CARTESIAN_POINT('',(-15.0000002235174,-0.000334888353921842,-30.));
#852=CARTESIAN_POINT('',(-53.61801001289,-0.000334888353921842,-30.));
#853=CARTESIAN_POINT('',(-8.54443795194943,-0.000334888353921842,-36.455562271568));
#854=CARTESIAN_POINT('',(-31.8901195306514,-0.000334888353921842,-13.109880692866));
#855=CARTESIAN_POINT('',(-20.6870533232189,-0.000334888353921842,-73.0566936710306));
#856=CARTESIAN_POINT('',(-17.4730308081868,-0.000334888353921842,-63.36875933426));
#857=CARTESIAN_POINT('',(-20.0586376142678,-0.000334888353921842,-74.318748448079));
#858=CARTESIAN_POINT('Origin',(-19.7379216237595,-0.000334888353921842,
-73.3715730401253));
#859=CARTESIAN_POINT('',(-18.7923311756994,-0.000334888353921842,-74.7475230132991));
#860=CARTESIAN_POINT('',(-58.5738090560632,-0.000334888353921842,-61.2774139129701));
#861=CARTESIAN_POINT('',(-17.5410515865403,-0.000334888353921842,-74.1664778948135));
#862=CARTESIAN_POINT('Origin',(-18.4716151851911,-0.000334888353921842,
-73.8003476053454));
#863=CARTESIAN_POINT('',(0.,-0.000334888353921842,-29.58381276704));
#864=CARTESIAN_POINT('',(-5.70188874698989,-0.000334888353921842,-44.0758399610041));
#865=CARTESIAN_POINT('',(19.6520218545178,-0.000334888353921842,-36.6977453664928));
#866=CARTESIAN_POINT('',(-31.4000281124263,-0.000334888353921842,-18.2171612710073));
#867=CARTESIAN_POINT('',(16.1769390723424,-0.000334888353921842,-46.2975555736941));
#868=CARTESIAN_POINT('',(13.0225096019839,-0.000334888353921842,-55.0115707858691));
#869=CARTESIAN_POINT('Origin',(17.7709091782883,-0.000334888353921842,-45.9100073231805));
#870=CARTESIAN_POINT('Origin',(-15.0000002235174,-15.,-30.));
#871=CARTESIAN_POINT('',(-92.2360198022626,15.,-30.));
#872=CARTESIAN_POINT('',(-92.2360198022626,-15.,-30.));
#873=CARTESIAN_POINT('',(-15.0000002235174,15.,-30.));
#874=CARTESIAN_POINT('',(-25.5286180720452,15.,-30.));
#875=CARTESIAN_POINT('',(-15.0000002235174,-15.,-30.));
#876=CARTESIAN_POINT('Origin',(-8.54443795194943,-15.,-36.455562271568));
#877=CARTESIAN_POINT('',(-8.54443795194943,15.,-36.455562271568));
#878=CARTESIAN_POINT('',(-15.0000002235174,15.,-30.));
#879=CARTESIAN_POINT('',(-8.54443795194943,-15.,-36.455562271568));
#880=CARTESIAN_POINT('Origin',(-21.0000003129244,-15.,-74.0000006556511));
#881=CARTESIAN_POINT('',(-20.6870533232189,15.,-73.0566936710306));
#882=CARTESIAN_POINT('',(-21.0000003129244,15.,-74.0000006556511));
#883=CARTESIAN_POINT('',(-20.6870533232189,-15.,-73.0566936710306));
#884=CARTESIAN_POINT('Origin',(-19.7379216237595,-15.,-73.3715730401253));
#885=CARTESIAN_POINT('',(-20.0586376142678,15.,-74.318748448079));
#886=CARTESIAN_POINT('Origin',(-19.7379216237595,15.,-73.3715730401253));
#887=CARTESIAN_POINT('',(-20.0586376142678,0.852665111646078,-74.318748448079));
#888=CARTESIAN_POINT('Origin',(-17.889889910385,-15.,-75.0530919098841));
#889=CARTESIAN_POINT('',(-18.7923311756994,15.,-74.7475230132991));
#890=CARTESIAN_POINT('',(-17.889889910385,15.,-75.0530919098841));
#891=CARTESIAN_POINT('',(-18.7923311756994,-15.,-74.7475230132991));
#892=CARTESIAN_POINT('Origin',(-18.4716151851911,-15.,-73.8003476053454));
#893=CARTESIAN_POINT('',(-17.5410515865403,15.,-74.1664778948135));
#894=CARTESIAN_POINT('Origin',(-18.4716151851911,15.,-73.8003476053454));
#895=CARTESIAN_POINT('',(-17.5410515865403,-15.,-74.1664778948135));
#896=CARTESIAN_POINT('Origin',(0.,-15.,-29.58381276704));
#897=CARTESIAN_POINT('',(0.,15.,-29.58381276704));
#898=CARTESIAN_POINT('',(0.,15.,-29.58381276704));
#899=CARTESIAN_POINT('',(0.,-15.,-29.58381276704));
#900=CARTESIAN_POINT('Origin',(19.6520218545178,-15.,-36.6977453664928));
#901=CARTESIAN_POINT('',(19.6520218545178,15.,-36.6977453664928));
#902=CARTESIAN_POINT('',(0.,15.,-29.58381276704));
#903=CARTESIAN_POINT('',(19.6520218545178,-15.,-36.6977453664928));
#904=CARTESIAN_POINT('Origin',(16.1769390723424,-15.,-46.2975555736941));
#905=CARTESIAN_POINT('',(16.1769390723424,15.,-46.2975555736941));
#906=CARTESIAN_POINT('',(19.6520218545178,15.,-36.6977453664928));
#907=CARTESIAN_POINT('',(16.1769390723424,-15.,-46.2975555736941));
#908=CARTESIAN_POINT('Origin',(17.7709091782883,-15.,-45.9100073231805));
#909=CARTESIAN_POINT('',(19.0048223030154,15.,-46.9909294969522));
#910=CARTESIAN_POINT('Origin',(17.7709091782883,15.,-45.9100073231805));
#911=CARTESIAN_POINT('',(19.0048223030154,-15.,-46.9909294969522));
#912=CARTESIAN_POINT('Origin',(26.4713819279548,-15.,-26.7644178070731));
#913=CARTESIAN_POINT('',(19.0048223030154,15.,-46.9909294969522));
#914=CARTESIAN_POINT('Origin',(-92.2360198022626,-15.,-30.));
#915=CARTESIAN_POINT('',(-92.2360198022626,15.,-30.));
#916=CARTESIAN_POINT('Origin',(-32.8823189371539,15.,-50.9087548584786));
#917=CARTESIAN_POINT('Origin',(26.4713819279548,0.,27.2355821929269));
#918=CARTESIAN_POINT('',(26.4713819279548,0.,27.2355821929269));
#919=CARTESIAN_POINT('',(26.4713819279548,15.,27.2355821929269));
#920=CARTESIAN_POINT('',(26.4713819279548,0.,27.2355821929269));
#921=CARTESIAN_POINT('',(26.4713819279548,15.,29.2355821929269));
#922=CARTESIAN_POINT('',(26.4713819279548,15.,27.2355821929269));
#923=CARTESIAN_POINT('',(26.4713819279548,0.,29.2355821929269));
#924=CARTESIAN_POINT('',(26.4713819279548,0.,29.2355821929269));
#925=CARTESIAN_POINT('',(26.4713819279548,0.,27.2355821929269));
#926=CARTESIAN_POINT('Origin',(-92.2360198022626,0.,29.2355821929269));
#927=CARTESIAN_POINT('',(-92.2360198022626,15.,29.2355821929269));
#928=CARTESIAN_POINT('',(-32.8823189371539,15.,29.2355821929269));
#929=CARTESIAN_POINT('',(-92.2360198022626,0.,29.2355821929269));
#930=CARTESIAN_POINT('',(-92.2360198022626,0.,29.2355821929269));
#931=CARTESIAN_POINT('',(-48.3540938905472,0.,29.2355821929269));
#932=CARTESIAN_POINT('Origin',(-32.8823189371539,0.,3.09124514152139));
#933=CARTESIAN_POINT('',(-20.0586376142678,0.,-20.318748448079));
#934=CARTESIAN_POINT('',(-20.6870533232189,0.,-19.0566936710306));
#935=CARTESIAN_POINT('Origin',(-19.7379216237595,0.,-19.3715730401253));
#936=CARTESIAN_POINT('',(-18.7923311756994,0.,-20.7475230132991));
#937=CARTESIAN_POINT('',(-17.889889910385,0.,-21.0530919098841));
#938=CARTESIAN_POINT('',(-17.5410515865403,0.,-20.1664778948135));
#939=CARTESIAN_POINT('Origin',(-18.4716151851911,0.,-19.8003476053453));
#940=CARTESIAN_POINT('',(0.,0.,24.41618723296));
#941=CARTESIAN_POINT('',(0.,0.,24.41618723296));
#942=CARTESIAN_POINT('',(19.6520218545178,0.,17.3022546335073));
#943=CARTESIAN_POINT('',(0.,0.,24.41618723296));
#944=CARTESIAN_POINT('',(16.1769390723424,0.,7.7024444263059));
#945=CARTESIAN_POINT('',(19.6520218545178,0.,17.3022546335073));
#946=CARTESIAN_POINT('',(19.0048223030154,0.,7.00907050304781));
#947=CARTESIAN_POINT('Origin',(17.7709091782883,0.,8.08999267681953));
#948=CARTESIAN_POINT('',(19.0048223030154,0.,7.00907050304781));
#949=CARTESIAN_POINT('',(-92.2360198022626,0.,24.));
#950=CARTESIAN_POINT('',(-92.2360198022626,0.,24.));
#951=CARTESIAN_POINT('',(-15.0000002235174,0.,24.));
#952=CARTESIAN_POINT('',(-25.5286180720452,0.,24.));
#953=CARTESIAN_POINT('',(-8.54443795194943,0.,17.544437728432));
#954=CARTESIAN_POINT('',(-15.0000002235174,0.,24.));
#955=CARTESIAN_POINT('',(-21.0000003129244,0.,-20.0000006556511));
#956=CARTESIAN_POINT('Origin',(-18.4716151851911,0.,-19.8003476053453));
#957=CARTESIAN_POINT('',(-18.7923311756994,15.,-20.7475230132991));
#958=CARTESIAN_POINT('',(-17.5410515865403,15.,-20.1664778948135));
#959=CARTESIAN_POINT('Origin',(-18.4716151851911,15.,-19.8003476053453));
#960=CARTESIAN_POINT('',(-17.5410515865403,0.,-20.1664778948135));
#961=CARTESIAN_POINT('',(-18.7923311756994,0.,-20.7475230132991));
#962=CARTESIAN_POINT('Origin',(-17.889889910385,0.,-21.0530919098841));
#963=CARTESIAN_POINT('',(-20.0586376142678,15.,-20.318748448079));
#964=CARTESIAN_POINT('',(-5.32515546609515,15.,-25.3075427950481));
#965=CARTESIAN_POINT('',(-20.0586376142678,0.,-20.318748448079));
#966=CARTESIAN_POINT('Origin',(0.,0.,24.41618723296));
#967=CARTESIAN_POINT('',(0.,15.,24.41618723296));
#968=CARTESIAN_POINT('',(2.25455728831468,15.,30.1464122482858));
#969=CARTESIAN_POINT('',(0.,0.,24.41618723296));
#970=CARTESIAN_POINT('Origin',(-19.7379216237595,0.,-19.3715730401253));
#971=CARTESIAN_POINT('',(-20.6870533232189,15.,-19.0566936710306));
#972=CARTESIAN_POINT('Origin',(-19.7379216237595,15.,-19.3715730401253));
#973=CARTESIAN_POINT('',(-20.6870533232189,0.,-19.0566936710306));
#974=CARTESIAN_POINT('Origin',(19.6520218545178,0.,17.3022546335073));
#975=CARTESIAN_POINT('',(19.6520218545178,15.,17.3022546335073));
#976=CARTESIAN_POINT('',(21.0770575396089,15.,16.7863989169504));
#977=CARTESIAN_POINT('',(19.6520218545178,0.,17.3022546335073));
#978=CARTESIAN_POINT('Origin',(-21.0000003129244,0.,-20.0000006556511));
#979=CARTESIAN_POINT('',(-8.54443795194943,15.,17.544437728432));
#980=CARTESIAN_POINT('',(-11.5881697072645,15.,8.36980586250015));
#981=CARTESIAN_POINT('',(-8.54443795194943,0.,17.544437728432));
#982=CARTESIAN_POINT('Origin',(16.1769390723424,0.,7.7024444263059));
#983=CARTESIAN_POINT('',(16.1769390723424,15.,7.7024444263059));
#984=CARTESIAN_POINT('',(19.8991248150575,15.,17.9848690261732));
#985=CARTESIAN_POINT('',(16.1769390723424,0.,7.7024444263059));
#986=CARTESIAN_POINT('Origin',(-8.54443795194943,0.,17.544437728432));
#987=CARTESIAN_POINT('',(-15.0000002235174,15.,24.));
#988=CARTESIAN_POINT('',(-2.21326909809707,15.,11.2132688745797));
#989=CARTESIAN_POINT('',(-15.0000002235174,0.,24.));
#990=CARTESIAN_POINT('Origin',(17.7709091782883,0.,8.08999267681953));
#991=CARTESIAN_POINT('',(19.0048223030154,15.,7.00907050304781));
#992=CARTESIAN_POINT('Origin',(17.7709091782883,15.,8.08999267681953));
#993=CARTESIAN_POINT('',(19.0048223030154,0.,7.00907050304781));
#994=CARTESIAN_POINT('Origin',(-15.0000002235174,0.,24.));
#995=CARTESIAN_POINT('',(-92.2360198022626,15.,24.));
#996=CARTESIAN_POINT('',(5.7356908522187,15.,24.));
#997=CARTESIAN_POINT('',(-92.2360198022626,0.,24.));
#998=CARTESIAN_POINT('Origin',(26.4713819279548,0.,27.2355821929269));
#999=CARTESIAN_POINT('',(26.4713819279548,15.,27.2355821929269));
#1000=CARTESIAN_POINT('Origin',(-92.2360198022626,0.,24.));
#1001=CARTESIAN_POINT('',(-92.2360198022626,15.,25.6177910964634));
#1002=CARTESIAN_POINT('Origin',(26.4713819279548,15.,27.2355821929269));
#1003=UNCERTAINTY_MEASURE_WITH_UNIT(LENGTH_MEASURE(0.01),#1007,
'DISTANCE_ACCURACY_VALUE',
'Maximum model space distance between geometric entities at asserted c
onnectivities');
#1004=UNCERTAINTY_MEASURE_WITH_UNIT(LENGTH_MEASURE(0.01),#1007,
'DISTANCE_ACCURACY_VALUE',
'Maximum model space distance between geometric entities at asserted c
onnectivities');
#1005=(
GEOMETRIC_REPRESENTATION_CONTEXT(3)
GLOBAL_UNCERTAINTY_ASSIGNED_CONTEXT((#1003))
GLOBAL_UNIT_ASSIGNED_CONTEXT((#1007,#1009,#1010))
REPRESENTATION_CONTEXT('','3D')
);
#1006=(
GEOMETRIC_REPRESENTATION_CONTEXT(3)
GLOBAL_UNCERTAINTY_ASSIGNED_CONTEXT((#1004))
GLOBAL_UNIT_ASSIGNED_CONTEXT((#1007,#1009,#1010))
REPRESENTATION_CONTEXT('','3D')
);
#1007=(
LENGTH_UNIT()
NAMED_UNIT(*)
SI_UNIT(.MILLI.,.METRE.)
);
#1008=(
LENGTH_UNIT()
NAMED_UNIT(*)
SI_UNIT($,.METRE.)
);
#1009=(
NAMED_UNIT(*)
PLANE_ANGLE_UNIT()
SI_UNIT($,.RADIAN.)
);
#1010=(
NAMED_UNIT(*)
SI_UNIT($,.STERADIAN.)
SOLID_ANGLE_UNIT()
);
#1011=SHAPE_DEFINITION_REPRESENTATION(#1012,#1013);
#1012=PRODUCT_DEFINITION_SHAPE('',$,#1015);
#1013=SHAPE_REPRESENTATION('',(#623),#1005);
#1014=PRODUCT_DEFINITION_CONTEXT('part definition',#1019,'design');
#1015=PRODUCT_DEFINITION('2026-06-10-16-21-24-548','(Unsaved)',#1016,#1014);
#1016=PRODUCT_DEFINITION_FORMATION('',$,#1021);
#1017=PRODUCT_RELATED_PRODUCT_CATEGORY('(Unsaved)','(Unsaved)',(#1021));
#1018=APPLICATION_PROTOCOL_DEFINITION('international standard',
'automotive_design',2009,#1019);
#1019=APPLICATION_CONTEXT(
'Core Data for Automotive Mechanical Design Process');
#1020=PRODUCT_CONTEXT('part definition',#1019,'mechanical');
#1021=PRODUCT('2026-06-10-16-21-24-548','(Unsaved)',$,(#1020));
#1022=PRESENTATION_STYLE_ASSIGNMENT((#1023));
#1023=SURFACE_STYLE_USAGE(.BOTH.,#1024);
#1024=SURFACE_SIDE_STYLE('',(#1025));
#1025=SURFACE_STYLE_FILL_AREA(#1026);
#1026=FILL_AREA_STYLE('Steel - Satin',(#1027));
#1027=FILL_AREA_STYLE_COLOUR('Steel - Satin',#1028);
#1028=COLOUR_RGB('Steel - Satin',0.627450980392157,0.627450980392157,0.627450980392157);
ENDSEC;
END-ISO-10303-21;
